<?xml version="1.0" encoding="UTF-8"?>
<svg id="uuid-7cfab088-1c0e-4bcc-a776-e066e9d2fee0" data-name="Capa 1" xmlns="http://www.w3.org/2000/svg" width="120mm" height="158.61mm" xmlns:xlink="http://www.w3.org/1999/xlink" viewBox="0 0 340.16 449.6">
  <defs>
    <style>
      .uuid-5e18004d-bd53-449e-a2e7-dc3980e00942 {
        mask: url(#uuid-b257b69c-1074-485a-936c-4562e311a714);
      }

      .uuid-5e18004d-bd53-449e-a2e7-dc3980e00942, .uuid-370c7185-23e5-44c1-8eef-602c1bc4e3f1 {
        fill: none;
      }

      .uuid-5c16df00-f084-4272-9199-3a88e2f8a4db {
        filter: url(#uuid-86df9a30-8b19-479f-ae53-a74b74e2d4ee);
      }

      .uuid-370c7185-23e5-44c1-8eef-602c1bc4e3f1 {
        stroke: #010101;
        stroke-miterlimit: 10;
        stroke-width: 4px;
      }

      .uuid-4e76b644-fcf9-4353-b422-7bfe3964312c {
        fill: #010101;
      }
    </style>
    <filter id="uuid-86df9a30-8b19-479f-ae53-a74b74e2d4ee" x="67.93" y="137.54" width="202.35" height="261.34" color-interpolation-filters="sRGB" filterUnits="userSpaceOnUse">
      <feFlood flood-color="#fff" result="bg"/>
      <feBlend in="SourceGraphic" in2="bg"/>
    </filter>
    <mask id="uuid-b257b69c-1074-485a-936c-4562e311a714" data-name="mask" x="67.93" y="137.54" width="202.35" height="261.34" maskUnits="userSpaceOnUse">
      <g class="uuid-5c16df00-f084-4272-9199-3a88e2f8a4db">
        <path id="uuid-987c09d0-b8ca-4c3a-a628-f29c6d47be8d" data-name="path7822" d="m133.77,201.9c6.38-12.4,10.68-25.65,13.86-39.19.29-1.09.45-1.23,1.48-.75,5.03,2.32,9.99,4.77,15.06,7,1.06.48,1.11.78.43,1.68-1.88,2.51-3.74,5.04-5.69,7.68,2.26.95,4.68,2.12,3.21,4.86-4.11,8.81-8.21,17.62-12.33,26.43-8.9,19.11-17.95,38.23-26.73,57.38,3.4.97,8.43,1.7,7.98,6.29-.14,6.38-5.1,11.53-11.63,11.14-2.19.18-3.17.95-3.52,3.11-6.2,11.87-2.33,19.22-3.56,31.15-1.02,9.7-1.97,19.41-3.09,29.1-.25,2.13-.92,2.58-2.97,1.9-7.5-2.49-14.99-5.04-22.5-7.53-2.08-.69-2.68-1.88-1.83-3.9,3.92-9.35,8.04-18.62,11.97-27.97,1.54-4.24,7.08-3.75,7.09-9.01,1.29-13.96,1.33-28.43,5.96-41.78-2.43,1.02-6.5-1.72-7.81-3.6,3.38.04,6.9,3.77,7.41-2.17,1.04-4.92,4.05-2.95,5.28-4.63,7.32-15.69,14.71-31.52,21.93-47.21m-13.02,70.15c-.25,1.18-1.71,2.53-.76,3.65,1.05,1.29,2.39,2.19,3.85,2.95.46.24,1.26.23,1.05,1.04-2.01.18-4.44-1.39-6.6-1.22-2.06,3.65,3.55,4.88,6,3.46,3.5-1.68,5.09-4.72,5.54-8.4.52-4.01-4.35-5.16-7.49-5.15-.53,1.21-1.04,2.38-1.59,3.67Z"/>
      </g>
    </mask>
  </defs>
  <path id="uuid-3076fa77-3134-43ca-ad72-e415b25c6f76" data-name="path121" class="uuid-4e76b644-fcf9-4353-b422-7bfe3964312c" d="m315.06,324.63,0,0c2.75-2.34,1.24-8.36-2.92-7.38-5.41,1.67-2.89,8.4.75,10.63,4.68,3.6,10.41,5.7,14.55,10.02,10.39,10.13-2.96,32.13-16.46,20.13-2.63-3.04-2.19-8.29.91-10.87,5.58-4.23,12.39,2.15,8.67,8.2-3.25-4.73-8.05.52-3.83,2.58,2.48,1.07,5.64.04,7.33-2.37,4.77-6.35-1.93-15.62-9.42-15.11-17.43-1.18-21.68,24.73-2.99,25.36-9.69,4.83-16.86-2.72-19.25-11.58-3.5,8.04,5.48,20.47,8.28,28.3,2.94,6.46,1.74,15.14-6.46,19.69-1.59.88-2.28,1.81-2.46,3.69-3.14,24.23-34.49,31.97-52.58,18.51-12.53,27.12-53.27,36.37-69.03,7.3-16.11,28.88-56.51,20.08-69.06-7.36-18.38,13.87-50.99,5-52.84-19.68.19-2.3-6.36-3.38-8.53-8.6-5.02-9.13,2.41-18.08,5.61-26.5,1.83-4.65,4.91-10.44,2.4-15.3-2.65,9-9.38,16.12-19.16,11.66,16.75-.64,15.76-24.08-.92-25.4-9.02-2.03-17.5,9.35-10.72,15.98,1.9,2.29,7.6,2.73,8.17-.64-.25-3.1-4.33-3.24-5.33-.45-4.75-6.83,4.87-13.35,9.52-7.17,3.52,4.89,1.23,10.94-4.8,12.66-12.91,3.59-21.55-15.24-10.3-24.42,4.63-3.93,10.93-5.81,14.91-10.5.84-1.11,1.55-2.39,1.98-3.7.92-2.68-2.12-5.95-4.89-5-3.24,1.31-3.12,4.99-1.16,7.38-21.81-7.2-33.92-36.31-17.19-54.37,3.91-4.47,9.06-6.99,15.05-7.17,12-.55,23.32-15.06,13.5-23.08-8.47,5.85-20.19-4.27-15.16-13.47.32-.65.24-1.05-.19-1.61-16.87-19.12-1.83-57.36,25.96-45.81-12.99-25.99-15.68-9.76,1.43-36.27-14.45-14.47-10.62-43.23,10.68-47.29,13.89-2.47,15.8,9.13,20.36,8.69,7.15-.08,14.26-.03,21.42-.03-.67-7.72,7.7-13.37,14.66-10.06,6.13-10.69,22.37-3.73,18.98,7.97-.33,1.16.27,2.06,1.51,2.08,3.38.04,6.76.02,10.14,0,.26,0,.62-.24.75-.48,2.15-3.77,5.34-5.92,9.69-6.26.56-.04.73-.24.79-.79.59-5.33,4.19-9.38,9.46-10.38,6.97-1.33,13.29,3.36,14.1,10.06.1.82.36,1.09,1.21,1.19,3.97.47,7.04,2.42,9.05,5.91.34.58.66.79,1.33.78,4-.26,8.06.61,11.93-.67-4.66-11.78,10.35-20.67,18.5-9.31,7.21-2.99,14.79,1.95,14.63,9.97,7.83,0,15.66-.01,23.49.02.58,0,.81-.25,1.1-.65,2.8-3.85,6.24-6.88,10.98-7.97,4.54-1.04,8.86-.06,12.93,2.08,17.5,8.89,16.75,33.41,3.84,46.02,4,5.5,8.01,11.02,12.07,16.6-4.8,6.09-8.74,12.65-11.21,20.2,28.56-15.74,46.24,24.89,27.75,45.15,5.22,10.56-5.48,19.88-14.83,14.32-10.08,7.57,2.34,22.75,12.24,22.9,11.29.73,18.45,6.84,22.13,17.15,7.1,18.37-5.24,38.25-22.99,44.5m-42.29,100.66c6.86-2.02,10.94-9.87,6.38-16.03-2.29-6.32,7.46-6.32,10.27-2.44,2.26-9.76-12.21-22.26-19.56-12.49,2.68,4.28,1.7,9.77-2.53,12.73-10.7,6.05-18.08-6.41-12.79-15.77-3.7,1.49-7.47,3.01-11.26,4.54,1.95,8.71.4,17.13-2.89,25.56,8.62-.62,5.46,3.08,10.39,4.15,7.16,1.32,14.25-2.91,16.54-9.92,1.2-1.68,3.83-.39,4.95.88,2.27,2.44,2.16,5.78.06,8.9.1-.03.2-.06.46-.1m-205.3.11c.06,0,.11-.02.17-.03-5.01-6.27,2.83-13.03,5.12-9.68,2.4,7.59,11.53,12.58,18.81,8.93,1.54-3.25,4.87-3.28,8-3.35-3.27-8.37-4.79-16.79-2.85-25.47-3.88-1.59-7.67-3.14-11.5-4.71,4.79,7.24.54,19.15-9.18,17.39-6.14-1.24-9.28-8.09-6.23-13.58.58-2.61-5.46-4.76-7.64-4.01-7.1,1.26-12.72,8.78-11.72,16.04,2.83-3.69,12.09-4.27,10.55,1.82-4.63,6.35-.96,14.64,6.47,16.65m82.15-14.34c-.07.02-.15.05-.22.07,4.92,4.7,2.38,14.25-4.9,14.27-10.31.82-18.38-10.66-13.93-20.1-10.6-2.96-21.17-5.91-31.76-8.86-.85,20.92,16.27,38.61,36.55,41.44,14.77,3.7,30.01-18.07,14.26-26.81m144.58-129.05c-10.84-40.35-23.77-84.42-.1-122.31-7.93-10.42-15.01-21.93-23.37-31.82-7.63-.78-11.81-9.21-11.36-16.23.05-1.12-.18-1.39-1.2-1.39-7.44,0-14.88,0-22.32,0-1.5.19-2.41,1.74-3.6,2.56,4.86,12.39-11.19,21.05-18.69,9.07-7.6,3.95-16.78-3.33-14.63-11.63h-6.25c-.72,5.69-4.75,10.09-10.54,10.67-.72.08-.76.42-.8.99-1.41,14.88-23.11,14.37-23.96-.77-6.05.12-11.34-4.86-11.85-10.85h-6.07c2.1,8.35-7.1,15.43-14.65,11.52-6.73,12.19-24.15,2.63-18.67-9.14-1.41-.85-2.25-2.51-3.98-2.44-7.48.02-14.97.01-22.45.01.68,7.59-3.38,17.68-12.31,17.58-.71-.03-1.09.2-1.48.75-7.33,10.46-14.66,20.91-22.03,31.34-.66.94-.72,1.53,0,2.5,9.91,13.53,15.08,28.68,15.43,45.47,2.25,32.83-15.36,62.64-15.66,95.01.31,17.4,3.63,34.81,11.87,50.28,16.11,32.54,47.2,39.24,79.52,46.61,12.42-8.28,30.32-1.42,34.96,12.59,6.11-15.68,22.05-19.84,36.17-12.49,15.45-4.69,31.67-7.4,46.31-14.39,36.76-18.89,48.05-65.25,41.71-103.48m-107.67,148.02c10.71,15.39,32.23,5.74,43.06-4.66,7.89-7.67,11.72-17.96,11.52-28.88-10.55,2.94-21.09,5.88-31.68,8.83,7.66,16.52-19.92,29.45-21.41,11.75.1-2.3.96-4.3,2.72-6.03-7.54,2.81-9.1,12.94-4.2,18.99m127.67-147.36c10.22,9.06-1.58,21.68-12.47,14.5.51,13.67-1.04,27.13-4.94,40.56,4.42-4.2,9.3-6.81,15.32-7.15-2.04-2.06-4.49-3.54-6.65-5.42-10.9-11.53,8.37-23.91,14.22-7.93.93-1.78,2.94-3.51,5.45-3.39,6.26-4.82,6.22-15.07.77-20.51-2.96-4.06,7.73-7.61,10.68-.46,1.01-6.44-2.17-14.2-10.44-13.38-7.62.55-3.59-9.56,1.7-10.24-7.77-6.42-25.36.66-20.08,11.77,2.26-.24,4.4.19,6.42,1.65m-300.15-12.71c3.61,1.69,6.51,8.99.69,9.5-7.18-1.24-13.47,6.26-11.29,13.48,2.67-7.03,12.99-3.95,10.88.13-5.65,5.51-6.05,16.36.86,20.77,2.45.05,4.06,1.63,5.3,3.61,4.21-15.71,25.06-4.7,14.21,7.53-2.34,2.08-4.73,3.48-7.06,5.72,6.07.2,10.8,2.72,15.17,6.66-3.91-13.25-5.58-26.3-5.03-40.04-15.3,9.17-23.24-14.97-6.4-16.3.7.03,1-.16,1.23-.82,3.75-10.91-12.86-17.17-20.37-10.94.62.23,1.14.43,1.79.71m39.25-54.77v-5.78c-14.36,12.83-26.75-11.93-8.48-14.78.6-.01.81-.24.97-.76,1.03-3.27.4-6.19-2.02-8.59-4.94-4.9-13.44-5.84-18.92-1.31,4.15.52,9.37,7.75,3.93,9.89-2.88.48-6.03.06-8.27,2.35-3.27,3.02-4.32,7.71-3.11,12.02,1.24-4.96,8.95-6.52,11.11-1.96.25.53.24.9-.19,1.34-3.56,3.73-4.6,9.37-2.97,14.22,12.25-5.93,24.2,5.96,24.94,18.03,1.58-8.29,2.7-16.34,3-24.69m235.77,20.8c.21,1.09.41,2.18.65,3.46.87-11.75,12.93-23.61,24.86-17.55,3.73-10.51-5.62-14.29-2.4-16.67,3.44-3.47,8.65-1.22,10.52,2.75,1.82-7.79-2.87-14.59-11.21-14.03-5.86-1.91-.62-9.59,3.73-10-7.22-6.47-24.31-1.3-21.04,9.88.17.56.4.8,1.05.8,17.78,2.47,6.43,27.68-8.59,14.75.06,9.27,1.18,17.46,2.43,26.6M51.63,391.38c4.87-7.21,11.79-9.84,20.45-8.96-6.66-5.39-12.19-11.49-16.85-18.45-1.76,12.77-19.07,26.46-7.06,38.71.19-4.16,1.29-7.83,3.46-11.3m221.3-13.03c-1.48,1.31-2.96,2.63-4.58,4.07,12.37-1.98,23.4,7.81,23.65,20.16,11.87-11.95-5.1-25.99-7.14-38.55-3.42,5.18-7.34,9.94-11.93,14.32m7.65-264.44c1.78,4.83.48,8.83-3.31,12.22,3.37,4.73,6.74,9.45,10.18,14.28,4.93-7.7,5.79-16.39,3.35-25.04-2.03-10.87-20.72-13.79-21.12-.91,1.66-5.06,8.95-5.91,10.9-.54m-221.57-.78c2.26-4.43,8.41-3.51,10.39.87-.31-11.68-17.7-9.73-20.51.05-3.23,8.44-1.82,17.28,1.95,25.33,3.52-4.89,6.82-9.49,10.08-14.02-3.09-3.73-4.09-7.66-1.92-12.23m104.57,1.3c4.51,5.4,13.32.71,11.78-5.83-2.95-10.8-18.62-3.34-11.78,5.83m-48.76-3.22c2.22,5.76,11.26,4.03,11.34-1.95.06-9.54-14.51-7.2-11.34,1.95m108.54-4.38c-2.68-6.79-12.75-3.54-11.27,3.31,1.94,8.02,13.87,4.76,11.27-3.31M38.02,262.34c-1.86.79-3.72,1.57-5.58,2.36,3.93,1.72,6.96,4.5,9.28,8.33,1.86-6.41,3.66-12.64,5.46-18.86-.09-.04-.18-.08-.26-.12-2.2,3.52-5.14,6.24-8.89,8.3m257.34-.12c1.04,3.51,2.07,7.03,3.14,10.65,2.25-3.73,5.3-6.46,9.4-8.28-6.17-1.66-11-4.94-14.48-10.16-.07.05-.13.1-.2.15.7,2.49,1.4,4.99,2.14,7.64Z"/>
  <path id="uuid-8ed73e0a-bcd0-4e93-8065-d58b1f8cf05a" data-name="path123" class="uuid-4e76b644-fcf9-4353-b422-7bfe3964312c" d="m59.44,45.07c1.75-.73,3.43-1.43,5.28-2.19,6.06,24.03,36.87,13.31,26.06-8.89,12.91-3.62,7.22-3.66,12.23,6.59,10.9,14.75,30.63,1.84,23.96-14.65,3.35-.45,6.64-.89,10.03-1.34.05,13.59,16.11,21.17,25.02,9.93,2.61-3.1,3-7.11,2.89-11.01,0-.54.13-.81.74-.8,3.18.14,6.43-.15,9.56.18-1.55,21.45,26.97,23.22,27.91,1.81,3.2.46,6.32.92,9.56,1.38-7.86,23.14,25.03,29.59,26.73,5.46,9.73,3.25,9.01-.71,7.05,9.41-1.4,19.42,24.57,21.15,27.92,2.17,3.14,1.45,6.19,2.85,9.34,4.3-9.38,15.75-18.81,31.35-28.19,47.09-.54.9-.96,1.09-1.95.7-21.49-8.5-44.36-13.53-67.45-14.69-32.51-1.79-65.3,2.69-96.05,13.43-1.6.17-5.07,2.93-5.86,1.04-9.67-16.07-19.52-32-29.16-48.09,1.48-.62,2.9-1.22,4.38-1.85Z"/>
  <path id="uuid-5668e686-8be9-402a-84c7-e4a567a7e664" data-name="path125" class="uuid-4e76b644-fcf9-4353-b422-7bfe3964312c" d="m83.36,13.2c8.17-9.65,22.24,2.68,14.06,11.96-7.78,8.56-21.3-2.56-14.06-11.96Z"/>
  <path id="uuid-6484406f-e296-44ec-bda2-240668cad3c3" data-name="path127" class="uuid-4e76b644-fcf9-4353-b422-7bfe3964312c" d="m55.79,23.89c11.73,3.25,6.92,20.84-4.72,17.86-11.59-3.16-7.08-20.83,4.72-17.86Z"/>
  <path id="uuid-5baa9518-b365-421c-aa40-49a9ff11e929" data-name="path129" class="uuid-4e76b644-fcf9-4353-b422-7bfe3964312c" d="m168.19.21c13.3-2.44,15.6,17.5,2.26,18.25-10.8.29-12.98-15.78-2.26-18.25Z"/>
  <path id="uuid-2ffe3914-1167-4f12-ad85-f0b7b8abb8c1" data-name="path131" class="uuid-4e76b644-fcf9-4353-b422-7bfe3964312c" d="m220.12,9.93c1.96,11.84-16.14,15.08-18.23,2.96-1.81-11.73,16.02-14.94,18.23-2.96Z"/>
  <path id="uuid-f8bcf837-acbc-4f39-8afc-7dd417125242" data-name="path133" class="uuid-4e76b644-fcf9-4353-b422-7bfe3964312c" d="m122.4,5.58c5.62-6.94,17.22-2.18,16.33,6.69-2.54,15.71-25.52,6.89-16.33-6.69Z"/>
  <path id="uuid-b30dc14a-77a6-43ab-9dce-a8aa7c42da1e" data-name="path135" class="uuid-4e76b644-fcf9-4353-b422-7bfe3964312c" d="m239.59,17.71c3.04-11.94,20.37-7.72,18.06,3.88-2.48,11.76-20.53,8.11-18.06-3.88Z"/>
  <path id="uuid-c3401ff3-4651-432b-ba92-833ea62823bb" data-name="path137" class="uuid-4e76b644-fcf9-4353-b422-7bfe3964312c" d="m289.25,24.13c8.7,3,7.41,15.98-.98,17.65-15.81,2.53-14.6-21.89.98-17.65Z"/>
  <g class="uuid-5e18004d-bd53-449e-a2e7-dc3980e00942">
    <path id="uuid-301c16ea-9404-4e4e-af1b-2f6c51736c56" data-name="path183" class="uuid-4e76b644-fcf9-4353-b422-7bfe3964312c" d="m269.96,252.38c-1.72,55.4,14.04,122.1-59.95,132.51-13.95,2.88-29.7,4.52-40.97,13.98-29.07-22.76-76.89-2.55-96-55.23-8.33-27.95-3.43-57.83-4.72-86.6-.09-39.84-.2-79.67-.38-119.51h202.26c.1,38.27-.16,76.56-.24,114.84m-60.17,98.74c-3.47,1.08-7.26,1.68-10.14,4.06-3.43,2.85,2.45,5.71,5.07,5.02,3.53-.57,7.03-1.29,10.53-2.02,4.72-3.52,7.65-10.63,9.83-16.12,9.65-.69,5.05,2.21,13.04,4.17,12.01,3.08,12.04-4.45,20.66-4.25,9.58-29.36,3.88-61.06,5.46-91.43.07-35.81.22-71.63.28-107.44h-95.34v198.9h36.82c.23-3.68.02-7.42.08-11.12-.98-3.05-2.72-5.89-2.93-9.19-.27-2.57.13-4.95,2.3-6.66.52-.41.66-.82.65-1.43-.02-7.07-.02-14.13,0-21.2,0-.66-.19-1.09-.68-1.55-3.13-2.16-5.13-10.11.68-9.4v-53.43h2.58c0,17.93,0,35.86-.01,53.79.21,2.32,2.99,3.54,3.19,6.43.53,2.61-.51,4.1-3.12,4.42v2.11c2.82.13,4.43-1.31,5.3-3.86,3.17,3.55,6.25,7,9.33,10.46.81,1.44.13,3.45.34,5.13-2.96.76-4.14,2.02-4.52,5.17-3.53-4.96-6.96-9.77-10.44-14.65v16.38c4.97-.5,8.93,2.19,13.49,3.78-11.32,1.93-8.41,14.68-9.96,23-.08,0-.15.02-.23.02-1.07-1.6-2.15-3.19-3.33-4.95v6.76h5.15c-1.16,2.58-.74,9.17-4.11,9.1m-53.76-34.74v-173.28h-10.5v238.99c3.52,1.02,6.96,2.02,10.5,3.04,0-22.92,0-45.73,0-68.75m-34.17-29.62c.02,30.05-.04,60.12.02,90.16.07.23.29.55.49.59,3.3.66,6.61,1.29,9.97,1.93v-236.34h-10.48c0,47.86,0,95.65,0,143.65m-23.67-59.04c0,45.4.03,90.8-.08,136.21-.38,6.13,6.54,6.57,10.56,9.37v-230.19h-10.48c0,28.18,0,56.3,0,84.62m-24.82-61.8c.07,30.29.2,60.58.25,90.88,1.99,32.18-6.67,68.32,11.45,97.08v-210.74h-11.78c.05,7.71-.11,15.13.08,22.79m155.38,180c-.43-1.27-1.2-2.23-2.4-2.73-2.09,4.81-4.42,9.07-7.32,13.5,5.26-.39,10.75-5.07,9.72-10.77Z"/>
  </g>
  <path id="uuid-a3e388a9-d821-43b0-b160-60f67c56cfa2" data-name="path197" class="uuid-4e76b644-fcf9-4353-b422-7bfe3964312c" d="m240.96,340.89c-3.45-.35-7.22.57-9.65-2.38-1.8-1.73-3.2-3.74-3.83-6.21-.03-.57-.45-.86-.86-1.18-.14.27-.42.55-.4.81.2,2.85-.5,5.56-1.09,8.3-.2.92-.59,1.23-1.56,1.2-3-.09-5.96-.02-8.97-.03,1.11-5.69.36-11.5,1.94-17.05,2.86-7.54,13.28-4.57,19.14-2.49,3.65,1.32,7.27,2.73,10.83,4.25,4.7,2.19,7.24-2.76,10.25-5.55,1.57,6.74,1.71,14.22-2.32,20.16-.8,1.59-10.95-.09-13.48.18Z"/>
  <path id="uuid-85771d75-e104-4497-bb4d-4a4e8a8b81f9" data-name="path199" class="uuid-4e76b644-fcf9-4353-b422-7bfe3964312c" d="m254.16,281.19c7.89,4.66,6.42,13.56,5.74,21.39-2.46.03-10.73-4.19-11.22-2.62-2.62,3.54-3.4,7.68-4.24,11.94-3.81-1.05-7.8-1.65-11.48-3.04-1.98-1.52-4.17-2.47-6.9-2.67-.84-8.88,2.58-17.24,9.2-23.14.29-.27.92-.4,1.32-.3,12.63,3.39,13.85-4.72,17.58-1.55Z"/>
  <path id="uuid-77cf5e60-4a39-40f1-b8da-5afff3b16220" data-name="path201" class="uuid-4e76b644-fcf9-4353-b422-7bfe3964312c" d="m213.88,176.17c4.45-1.16,8.83-2.29,13.2-3.45,2.1-.63,6.17,4.67,8.32,5.99-2.35,2.02-4.64,4.01-6.97,5.95-6.5-.66-13.04-3.29-19.65-4.67-.1.45-.2.9-.31,1.4h-2.28c-.1-.46-.2-.88-.31-1.4-7.87,1.31-15.07,3.96-21.03,9.6v-22.17c6.87,3.3,13.69,6.57,20.63,9.9-.96-5.97-1.92-11.78-2.86-17.72.62-3.11,3.06-5.74,4.43-8.75,1.6,2.79,3.83,5.66,4.55,8.78-.79,5.95-1.69,11.83-2.47,17.79,1.64-.42,3.16-.81,4.76-1.23Z"/>
  <path id="uuid-64f1d305-7977-4967-bd15-73b51fbb48da" data-name="path203" class="uuid-4e76b644-fcf9-4353-b422-7bfe3964312c" d="m258.8,304.75c.2.29.43.57.4.82-.69,6.78-3.18,13.56-8.65,17.92-.88.77-1.8.91-2.89.47-5.09-1.96-9.98-4.11-15.22-5.69,1.54-1.83,2.32-3.91,2.52-6.27,18.41,4.71,7.88,3.75,14.99-9.6,2.98.79,5.87,1.56,8.85,2.34Z"/>
  <path id="uuid-00ad4aac-6229-48e9-809d-9893f4caaac5" data-name="path205" class="uuid-4e76b644-fcf9-4353-b422-7bfe3964312c" d="m226.98,226.69h-7v-1.4c2.15-.57,2.44-.84,2.46-3.06.04-6.08.04-12.16,0-18.25-.01-2.02-.35-2.34-2.33-2.84v-1.39c5.47.41,14.82-2.18,15.43,5.77.29,3.33-.48,6.18-3.66,8.09,2.06,4.05,2.88,8.85,6.26,12.03.24.18.11.84.14,1.26-9.35,1.71-6.89-11.78-11.86-11.75,0,2.69-.03,5.39.01,8.09.03,1.46,1.11,1.86,2.37,2v1.46h-1.82m2.92-14.29c1.98-1.98,1.89-7.43.43-9.47-.94-1.68-4.25-2.41-3.98.23.13,3.4-.07,6.8.08,10.19,1.28.13,2.42,0,3.47-.96Z"/>
  <path id="uuid-2bc0d192-56ee-403b-8fa7-70ab59922276" data-name="path207" class="uuid-4e76b644-fcf9-4353-b422-7bfe3964312c" d="m234.47,274.57c-1.68-1.3-.66-2.83-.66-4.51,0-1.39-.01-1.4-1.4-1.37-3.88.03.95-5.9,1.35-7.74,18.73,3.37,3.49,3.73,16.16,17.56-2.65,2.79-8.53,3.07-11.79,1.99.52-1.66-1.53-1.89-2.61-2.38-1.84-.57-.86-2.11-1.05-3.55Z"/>
  <path id="uuid-cfe7a839-4b31-4531-8dc7-a486c3477119" data-name="path209" class="uuid-4e76b644-fcf9-4353-b422-7bfe3964312c" d="m180.63,221.13c.15,2.5-.2,3.87,2.71,4.18v1.33h-9.03v-1.34c1.91-.04,2.57-1.55,2.4-3.27,0-6.18,0-12.37-.05-18.55-.01-1.53-.41-1.88-2.19-2.3v-1.3c2.9-.33,6.01-.11,8.97-.1,10.46,0,7.42,19.76-2.81,15.89,0,1.8,0,3.59,0,5.47m1.43-19.72c-1.18-.09-1.43.69-1.44,1.61-.02,3.41-.02,6.81.01,10.22,0,.27.3.66.56.77,5.56,1.76,6.19-12.52.87-12.61Z"/>
  <path id="uuid-4cd73947-3f4b-4f9e-98e9-05e3f115c4ef" data-name="path211" class="uuid-4e76b644-fcf9-4353-b422-7bfe3964312c" d="m215.61,208.91c.01,2.72.01,5.35.01,8-2.94.65,1.31-3.81-6.18-3.02-.27,2.72-.05,5.52-.1,8.26.03,2.18.36,2.51,2.49,2.69,3.89.74,4.7-2.24,5.73-5.34.35.1.68.2,1.09.32-.34,2.28-.67,4.51-1.02,6.81h-15.05v-1.31c2.18-.63,2.78-.67,2.71-3.16,0-6.15.04-12.3-.02-18.45-.11-1.88-.37-2.18-2.28-2.53v-1.39h13.84c-.21,1.91,1.15,5.61-.67,6.62-.89-4.04-1.77-5.3-6-4.75-1.69.25-.5,8.23-.84,10.1,7.62.95,3.41-3.99,6.26-2.84Z"/>
  <path id="uuid-43b7a2f1-bed4-4802-9b6d-e196712f750c" data-name="path213" class="uuid-4e76b644-fcf9-4353-b422-7bfe3964312c" d="m239.55,259.69c-2.08-.46-4.09-.91-6.19-1.39,4.96-4.12,15.62-12.24,20.16-3.8,2.21,4.11,1.16,8.43-.6,12.54-3.99-3.44-8.39-5.85-13.38-7.35Z"/>
  <path id="uuid-eb54095c-a2d1-4f95-bbdf-c509dc5a729b" data-name="path215" class="uuid-4e76b644-fcf9-4353-b422-7bfe3964312c" d="m248.69,217.89c-1.29.18-3.05-.56-3.82.65-.36,1.23-.63,2.49-.91,3.74-.48,2.12-.34,2.35,1.74,3,.06.46.05.89-.01,1.39h-6.48v-1.45c1.79-.14,2.39-1.48,2.81-2.97,2.03-7.17,4.09-14.33,6.08-21.52.29-1.03.85-1.42,1.9-1.54,1.91,7.4,3.85,14.73,5.79,22.11.51,1.69.86,3.77,3.03,3.92v1.43h-8.41v-1.34c1.78-.75,1.84-.88,1.36-2.83-.37-1.5-.74-3-1.13-4.58h-1.95m-2.22-6c-.31,1.23-.61,2.45-.93,3.73h4.5c-.72-2.95-1.42-5.83-2.12-8.72-.06.01-.11.02-.17.03-.42,1.6-.84,3.2-1.28,4.96Z"/>
  <path id="uuid-1a776c72-b44b-4c01-8443-5820c9193e49" data-name="path217" class="uuid-4e76b644-fcf9-4353-b422-7bfe3964312c" d="m200.64,200.78c-.85.82-2.31.65-2.31,2.12-.33,6.4-.05,12.83-.12,19.24,0,2.31.21,2.58,2.39,3.16v1.33h-8.79v-1.35c2.1-.17,2.49-1.61,2.43-3.46-.03-6.18-.04-12.36-.11-18.53-.02-1.41-.38-1.67-2.34-2.14v-1.32h8.8c.02.29.04.58.06.96Z"/>
  <path id="uuid-20b9b19f-96c7-4ae0-977d-eb9d7a83c8fe" data-name="path219" class="uuid-4e76b644-fcf9-4353-b422-7bfe3964312c" d="m232.5,311.87c.81,11.99-17.26-.27-8.64-3.09,3.42-.65,6.3.41,8.64,3.09Z"/>
  <path id="uuid-f1e3f44e-a660-466f-8bdc-926b03f981bc" data-name="path221" class="uuid-4e76b644-fcf9-4353-b422-7bfe3964312c" d="m206.92,198.62c-.54.04-.85.02-.85-.6.11-5.03-.14-10.12.11-15.13h2.44v15.73c-.55,0-1.08,0-1.71,0Z"/>
  <path id="uuid-f6482f9f-2ad1-4e67-983f-ceb4e91f6bf1" data-name="path223" class="uuid-4e76b644-fcf9-4353-b422-7bfe3964312c" d="m246.49,265.57c7.94,4.68,4.85,4.37,6.69,12.22-3.85-1.69-7.1-7.6-6.69-12.22Z"/>
  <path id="uuid-cfd1baab-9518-4aa4-a5cc-c0d7a022b848" data-name="path7822" class="uuid-370c7185-23e5-44c1-8eef-602c1bc4e3f1" d="m133.77,201.9c6.38-12.4,10.68-25.65,13.86-39.19.29-1.09.45-1.23,1.48-.75,5.03,2.32,9.99,4.77,15.06,7,1.06.48,1.11.78.43,1.68-1.88,2.51-3.74,5.04-5.69,7.68,2.26.95,4.68,2.12,3.21,4.86-4.11,8.81-8.21,17.62-12.33,26.43-8.9,19.11-17.95,38.23-26.73,57.38,3.4.97,8.43,1.7,7.98,6.29-.14,6.38-5.1,11.53-11.63,11.14-2.19.18-3.17.95-3.52,3.11-6.2,11.87-2.33,19.22-3.56,31.15-1.02,9.7-1.97,19.41-3.09,29.1-.25,2.13-.92,2.58-2.97,1.9-7.5-2.49-14.99-5.04-22.5-7.53-2.08-.69-2.68-1.88-1.83-3.9,3.92-9.35,8.04-18.62,11.97-27.97,1.54-4.24,7.08-3.75,7.09-9.01,1.29-13.96,1.33-28.43,5.96-41.78-2.43,1.02-6.5-1.72-7.81-3.6,3.38.04,6.9,3.77,7.41-2.17,1.04-4.92,4.05-2.95,5.28-4.63,7.32-15.69,14.71-31.52,21.93-47.21m-13.02,70.15c-.25,1.18-1.71,2.53-.76,3.65,1.05,1.29,2.39,2.19,3.85,2.95.46.24,1.26.23,1.05,1.04-2.01.18-4.44-1.39-6.6-1.22-2.06,3.65,3.55,4.88,6,3.46,3.5-1.68,5.09-4.72,5.54-8.4.52-4.01-4.35-5.16-7.49-5.15-.53,1.21-1.04,2.38-1.59,3.67Z"/>
</svg>